<mxfile host="app.diagrams.net" modified="2023-09-17T05:30:20.342Z" agent="Mozilla/5.0 (Macintosh; Intel Mac OS X 10_15_7) AppleWebKit/537.36 (KHTML, like Gecko) Chrome/116.0.0.0 Safari/537.36" etag="Eoz1w9BXpgYFgwd0hFE2" version="21.6.8" type="github">
  <diagram name="第 1 页" id="Dieb2r_4ZCmCPJevkqm0">
    <mxGraphModel dx="1077" dy="611" grid="1" gridSize="10" guides="1" tooltips="1" connect="1" arrows="1" fold="1" page="1" pageScale="1" pageWidth="827" pageHeight="1169" math="0" shadow="0">
      <root>
        <mxCell id="0" />
        <mxCell id="1" parent="0" />
        <mxCell id="-7cVYtZQI--8h56764MG-1" value="仓库&lt;br style=&quot;font-size: 15px;&quot;&gt;hub.docker.com" style="rounded=0;whiteSpace=wrap;html=1;fillColor=#f8cecc;strokeColor=#b85450;arcSize=15;fontSize=15;" vertex="1" parent="1">
          <mxGeometry x="380" y="350" width="120" height="60" as="geometry" />
        </mxCell>
        <mxCell id="-7cVYtZQI--8h56764MG-20" style="edgeStyle=orthogonalEdgeStyle;rounded=0;orthogonalLoop=1;jettySize=auto;html=1;exitX=0.25;exitY=1;exitDx=0;exitDy=0;entryX=0.25;entryY=0;entryDx=0;entryDy=0;" edge="1" parent="1">
          <mxGeometry relative="1" as="geometry">
            <mxPoint x="415" y="571" as="sourcePoint" />
            <mxPoint x="415" y="690" as="targetPoint" />
          </mxGeometry>
        </mxCell>
        <mxCell id="-7cVYtZQI--8h56764MG-21" value="run" style="edgeLabel;html=1;align=center;verticalAlign=middle;resizable=0;points=[];fontSize=15;" vertex="1" connectable="0" parent="-7cVYtZQI--8h56764MG-20">
          <mxGeometry x="-0.067" y="-2" relative="1" as="geometry">
            <mxPoint y="4" as="offset" />
          </mxGeometry>
        </mxCell>
        <mxCell id="-7cVYtZQI--8h56764MG-26" style="edgeStyle=orthogonalEdgeStyle;rounded=0;orthogonalLoop=1;jettySize=auto;html=1;entryX=1;entryY=0.5;entryDx=0;entryDy=0;" edge="1" parent="1">
          <mxGeometry relative="1" as="geometry">
            <mxPoint x="380" y="527" as="sourcePoint" />
            <mxPoint x="280" y="527" as="targetPoint" />
          </mxGeometry>
        </mxCell>
        <mxCell id="-7cVYtZQI--8h56764MG-27" value="save" style="edgeLabel;html=1;align=center;verticalAlign=middle;resizable=0;points=[];fontSize=15;" vertex="1" connectable="0" parent="-7cVYtZQI--8h56764MG-26">
          <mxGeometry x="0.0362" y="1" relative="1" as="geometry">
            <mxPoint as="offset" />
          </mxGeometry>
        </mxCell>
        <mxCell id="-7cVYtZQI--8h56764MG-2" value="镜像 image" style="rounded=0;whiteSpace=wrap;html=1;fillColor=#ffe6cc;strokeColor=#d79b00;arcSize=15;fontSize=15;" vertex="1" parent="1">
          <mxGeometry x="380" y="511" width="120" height="60" as="geometry" />
        </mxCell>
        <mxCell id="-7cVYtZQI--8h56764MG-30" style="edgeStyle=orthogonalEdgeStyle;rounded=0;orthogonalLoop=1;jettySize=auto;html=1;entryX=0.068;entryY=1.004;entryDx=0;entryDy=0;entryPerimeter=0;exitX=1;exitY=0.5;exitDx=0;exitDy=0;" edge="1" parent="1" source="-7cVYtZQI--8h56764MG-3">
          <mxGeometry relative="1" as="geometry">
            <mxPoint x="287" y="649" as="sourcePoint" />
            <mxPoint x="395.15999999999985" y="571.24" as="targetPoint" />
          </mxGeometry>
        </mxCell>
        <mxCell id="-7cVYtZQI--8h56764MG-31" value="&lt;font style=&quot;font-size: 15px;&quot;&gt;build&lt;/font&gt;" style="edgeLabel;html=1;align=center;verticalAlign=middle;resizable=0;points=[];" vertex="1" connectable="0" parent="-7cVYtZQI--8h56764MG-30">
          <mxGeometry x="-0.7089" y="2" relative="1" as="geometry">
            <mxPoint x="22" as="offset" />
          </mxGeometry>
        </mxCell>
        <mxCell id="-7cVYtZQI--8h56764MG-3" value="Dockerfile" style="rounded=0;whiteSpace=wrap;html=1;fillColor=#dae8fc;strokeColor=#6c8ebf;arcSize=15;fontSize=15;" vertex="1" parent="1">
          <mxGeometry x="160" y="620" width="120" height="60" as="geometry" />
        </mxCell>
        <mxCell id="-7cVYtZQI--8h56764MG-28" style="edgeStyle=orthogonalEdgeStyle;rounded=0;orthogonalLoop=1;jettySize=auto;html=1;entryX=0;entryY=0.5;entryDx=0;entryDy=0;" edge="1" parent="1">
          <mxGeometry relative="1" as="geometry">
            <mxPoint x="280" y="551" as="sourcePoint" />
            <mxPoint x="380" y="551" as="targetPoint" />
          </mxGeometry>
        </mxCell>
        <mxCell id="-7cVYtZQI--8h56764MG-29" value="load" style="edgeLabel;html=1;align=center;verticalAlign=middle;resizable=0;points=[];fontSize=15;" vertex="1" connectable="0" parent="-7cVYtZQI--8h56764MG-28">
          <mxGeometry x="-0.0529" relative="1" as="geometry">
            <mxPoint as="offset" />
          </mxGeometry>
        </mxCell>
        <mxCell id="-7cVYtZQI--8h56764MG-4" value="tar文件" style="rounded=0;whiteSpace=wrap;html=1;fillColor=#f5f5f5;fontColor=#333333;strokeColor=#666666;arcSize=15;fontSize=15;" vertex="1" parent="1">
          <mxGeometry x="160" y="511" width="120" height="60" as="geometry" />
        </mxCell>
        <mxCell id="-7cVYtZQI--8h56764MG-22" style="edgeStyle=orthogonalEdgeStyle;rounded=0;orthogonalLoop=1;jettySize=auto;html=1;exitX=0.75;exitY=0;exitDx=0;exitDy=0;entryX=0.75;entryY=1;entryDx=0;entryDy=0;" edge="1" parent="1">
          <mxGeometry relative="1" as="geometry">
            <mxPoint x="463" y="690" as="sourcePoint" />
            <mxPoint x="463" y="571" as="targetPoint" />
          </mxGeometry>
        </mxCell>
        <mxCell id="-7cVYtZQI--8h56764MG-23" value="commit" style="edgeLabel;html=1;align=center;verticalAlign=middle;resizable=0;points=[];fontSize=15;" vertex="1" connectable="0" parent="-7cVYtZQI--8h56764MG-22">
          <mxGeometry x="-0.031" y="-4" relative="1" as="geometry">
            <mxPoint y="-3" as="offset" />
          </mxGeometry>
        </mxCell>
        <mxCell id="-7cVYtZQI--8h56764MG-5" value="容器 container" style="rounded=0;whiteSpace=wrap;html=1;arcSize=15;fontSize=15;" vertex="1" parent="1">
          <mxGeometry x="380" y="690" width="120" height="60" as="geometry" />
        </mxCell>
        <mxCell id="-7cVYtZQI--8h56764MG-7" value="" style="endArrow=classic;html=1;rounded=0;exitX=0.25;exitY=1;exitDx=0;exitDy=0;arcSize=15;fontSize=15;" edge="1" parent="1">
          <mxGeometry width="50" height="50" relative="1" as="geometry">
            <mxPoint x="414" y="410.0000000000001" as="sourcePoint" />
            <mxPoint x="414" y="510" as="targetPoint" />
          </mxGeometry>
        </mxCell>
        <mxCell id="-7cVYtZQI--8h56764MG-8" value="pull" style="edgeLabel;html=1;align=center;verticalAlign=middle;resizable=0;points=[];arcSize=15;fontSize=15;" vertex="1" connectable="0" parent="-7cVYtZQI--8h56764MG-7">
          <mxGeometry x="-0.0632" y="2" relative="1" as="geometry">
            <mxPoint x="-2" y="4" as="offset" />
          </mxGeometry>
        </mxCell>
        <mxCell id="-7cVYtZQI--8h56764MG-10" value="" style="endArrow=classic;html=1;rounded=0;entryX=0.75;entryY=1;entryDx=0;entryDy=0;" edge="1" parent="1">
          <mxGeometry width="50" height="50" relative="1" as="geometry">
            <mxPoint x="461" y="510" as="sourcePoint" />
            <mxPoint x="461" y="410.0000000000001" as="targetPoint" />
          </mxGeometry>
        </mxCell>
        <mxCell id="-7cVYtZQI--8h56764MG-11" value="&lt;font style=&quot;font-size: 15px;&quot;&gt;push&lt;/font&gt;" style="edgeLabel;html=1;align=center;verticalAlign=middle;resizable=0;points=[];" vertex="1" connectable="0" parent="-7cVYtZQI--8h56764MG-10">
          <mxGeometry x="-0.0192" y="2" relative="1" as="geometry">
            <mxPoint as="offset" />
          </mxGeometry>
        </mxCell>
        <mxCell id="-7cVYtZQI--8h56764MG-12" value="镜像命令" style="swimlane;fontStyle=0;childLayout=stackLayout;horizontal=1;startSize=30;horizontalStack=0;resizeParent=1;resizeParentMax=0;resizeLast=0;collapsible=1;marginBottom=0;whiteSpace=wrap;html=1;" vertex="1" parent="1">
          <mxGeometry x="527" y="481" width="180" height="120" as="geometry">
            <mxRectangle x="550" y="470" width="90" height="30" as="alternateBounds" />
          </mxGeometry>
        </mxCell>
        <mxCell id="-7cVYtZQI--8h56764MG-13" value="docker images # ls&amp;nbsp; docker镜像&lt;br&gt;docker pull ID&lt;br&gt;docker push&lt;br&gt;docker search NAME&lt;br&gt;docker rmi ID&lt;br&gt;docker history" style="text;strokeColor=none;fillColor=none;align=left;verticalAlign=middle;spacingLeft=4;spacingRight=4;overflow=hidden;points=[[0,0.5],[1,0.5]];portConstraint=eastwest;rotatable=0;whiteSpace=wrap;html=1;" vertex="1" parent="-7cVYtZQI--8h56764MG-12">
          <mxGeometry y="30" width="180" height="90" as="geometry" />
        </mxCell>
        <mxCell id="-7cVYtZQI--8h56764MG-16" value="容器命令" style="swimlane;fontStyle=0;childLayout=stackLayout;horizontal=1;startSize=30;horizontalStack=0;resizeParent=1;resizeParentMax=0;resizeLast=0;collapsible=1;marginBottom=0;whiteSpace=wrap;html=1;" vertex="1" parent="1">
          <mxGeometry x="527" y="630" width="300" height="210" as="geometry" />
        </mxCell>
        <mxCell id="-7cVYtZQI--8h56764MG-17" value="docker run [OPTIONS] image [COMMAND] [ARG...]&lt;br&gt;docker commit -m=&quot;detail&quot; -a=&quot;auther&quot; ID&amp;nbsp; NAME:TAG&lt;br&gt;docker start/restart ID&lt;br&gt;docker stop/kill [ID or Name]&lt;br&gt;docker rm ID&amp;nbsp; # 删除容器&lt;br&gt;docker ps 查询容器&lt;br&gt;docker logs -f -t -tail&amp;nbsp; ID&lt;br&gt;docker top ID # 查看容器日志&lt;br&gt;docker inspect # 查看容器细节&lt;br&gt;docker exec -it ID bashShelll # 进入容器&amp;nbsp;&lt;br&gt;docker attach ID # 重新进入，不会启动新的进程&lt;br&gt;docker cp ID:PATH HOSTPATH # 复制文件到宿主机" style="text;strokeColor=none;fillColor=none;align=left;verticalAlign=middle;spacingLeft=4;spacingRight=4;overflow=hidden;points=[[0,0.5],[1,0.5]];portConstraint=eastwest;rotatable=0;whiteSpace=wrap;html=1;" vertex="1" parent="-7cVYtZQI--8h56764MG-16">
          <mxGeometry y="30" width="300" height="180" as="geometry" />
        </mxCell>
      </root>
    </mxGraphModel>
  </diagram>
</mxfile>
